# xmcd
#
# Track frame offsets:
#       150
#       17144
#       43696
#       68008
#       90473
#       114710
#       133829
#       159024
#       184006
#       203038
#       223835
#       247249
#       265501
#       293778
#
# Disc length: 4148 seconds
#
# Revision: 0
# Processed by: cddbd v1.5.1PL0 Copyright (c) Steve Scherf et al.
# Submitted via: CD-DA_X-Tractor v0.24
#
DISCID=c810320e
DTITLE=Blümchen - Verliebt
DYEAR=1900
DGENRE=Hardcore
TTITLE0=Nur geträumt
TTITLE1=Schmetterlinge
TTITLE2=Du bist die insel
TTITLE3=Er liebt mich
TTITLE4=Übermorgenland
TTITLE5=Gib mir noch zeit
TTITLE6=Eisblumen
TTITLE7=Reisi durch die zeit
TTITLE8=Achterbahn
TTITLE9=S.O.S, - Herz in not
TTITLE10=Verrückte jungs
TTITLE11=Kleiner satellit (satellit in der luft mix)
TTITLE12=Nur geträumt (langer traum mix)
TTITLE13=Verrückte jungs (grosse jungs mix)
EXTD=
EXTT0=
EXTT1=
EXTT2=
EXTT3=
EXTT4=
EXTT5=
EXTT6=
EXTT7=
EXTT8=
EXTT9=
EXTT10=
EXTT11=
EXTT12=
EXTT13=
PLAYORDER=
